<svg xmlns="http://www.w3.org/2000/svg" viewBox="0 0 60 60">
  <rect width="60" height="60" rx="12" fill="#0f1b12"/>
  <path d="M30 10c-11 0-20 8.6-20 19.2 0 3.6 1 7 2.9 9.9L10 50l11.3-2.8c2.6 1.3 5.6 2 8.7 2 11 0 20-8.6 20-19.2S41 10 30 10z" fill="#00e676"/>
  <path d="M24 22c-.7 0-1.6.3-2.1 1.2-.6 1-1.4 2.7-.4 5.2s3.6 5.9 7.7 8.2c4.1 2.3 6.6 2.3 7.8 2 1.2-.3 2.7-1.3 3-2.6.3-1.2.2-2.2 0-2.5-.2-.3-.6-.4-1.2-.7l-3.5-1.6c-.5-.2-.9-.3-1.3.2l-1.4 1.7c-.3.4-.7.4-1.2.2-1.6-.7-3.2-1.7-4.5-3-1.2-1.2-2-2.6-2.5-3.6-.3-.5 0-.9.3-1.2l1.2-1.4c.4-.4.3-.9.1-1.3l-1.5-3.5c-.3-.8-.7-1.2-1.3-1.2-.4-.1-.8-.1-1.2-.1z" fill="#0f1b12"/>
  <text x="30" y="57" font-family="Arial, sans-serif" font-size="9" font-weight="bold" fill="#00e676" text-anchor="middle">GO</text>
</svg>
